<svg xmlns="http://www.w3.org/2000/svg" viewBox="0 0 19.613 21.5"><path d="M18.863 6.31v12.44c0 1.1-.9 2-2 2H2.75c-1.1 0-2-.9-2-2V4.637c0-1.1.9-2 2-2h11.378" fill="none" stroke="#FFF" stroke-width="1.5" stroke-linecap="round" stroke-linejoin="round" stroke-miterlimit="10"/><g fill="none" stroke="#FFF" stroke-linecap="round" stroke-linejoin="round" stroke-miterlimit="10"><path d="M4.23 6.577h2.51v2.51H4.23zm4.32 0h2.512v2.51h-2.51zm4.322 0h2.51v2.51h-2.51zM4.23 10.438h2.51v2.51H4.23zm4.32 0h2.512v2.51h-2.51zm4.322 0h2.51v2.51h-2.51zM4.23 14.298h2.51v2.51H4.23zm4.32 0h2.512v2.51h-2.51zm4.322 0h2.51v2.51h-2.51z"/></g><path fill="none" stroke="#FFF" stroke-width="1.5" stroke-linecap="round" stroke-linejoin="round" stroke-miterlimit="10" d="M5.485.75v3.473M14.128.75v3.473"/></svg>