<svg xmlns="http://www.w3.org/2000/svg" viewBox="0 0 26.07 26.07"><path fill="#FFF" d="M5.31 12.352h12.135v1.37H5.31z"/><path d="M16.31 13.036c-1.175-1.174-1.734-3.495-1.78-5.105 1.607 2.163 3.7 4.05 6.23 5.106-2.53 1.013-4.53 3.013-6.23 5.105.136-1.723.558-3.815 1.78-5.104z" fill="#FFF"/><g><path d="M13.035 26.07C5.848 26.07 0 20.223 0 13.035S5.848 0 13.035 0C20.223 0 26.07 5.848 26.07 13.035S20.223 26.07 13.035 26.07zm0-24.57C6.675 1.5 1.5 6.675 1.5 13.035S6.676 24.57 13.035 24.57c6.36 0 11.535-5.175 11.535-11.535S19.396 1.5 13.035 1.5z"/></g></svg>