<svg xmlns="http://www.w3.org/2000/svg" viewBox="0 0 20 20"><path d="M10 0C4.477 0 0 4.477 0 10s4.477 10 10 10 10-4.477 10-10S15.523 0 10 0zm3.37 13.336c-.274.273-.586.188-.704.085l-2.57-2.296c-.027.002-.05.016-.08.016-.628 0-1.138-.51-1.138-1.14 0-.408.226-.75.548-.95l.162-3.18c.01-.15.13-.42.426-.42.295 0 .418.27.426.42l.14 3.16c.338.198.576.55.576.97 0 .005-.003.01-.003.014l2.302 2.62c.102.118.19.428-.085.702zm1.396 2.455c-.206.17-.51.14-.68-.063-.17-.207-.14-.51.065-.68 1.39-1.144 2.228-2.788 2.358-4.564h-.78c-.266 0-.482-.216-.482-.483 0-.268.216-.484.483-.484h.78c-.236-3.212-2.8-5.78-6.01-6.026v.797c0 .267-.215.483-.482.483s-.483-.216-.483-.483V3.49C6.31 3.718 3.728 6.293 3.49 9.517h.816c.267 0 .483.216.483.483s-.217.483-.484.483H3.49c.237 3.223 2.818 5.8 6.044 6.028v-.797c0-.267.216-.483.483-.483s.483.215.483.482v.902c0 .078-.023.15-.056.214.025.058.04.122.04.19 0 .266-.217.482-.484.482-4.135 0-7.5-3.365-7.5-7.5S5.865 2.5 10 2.5s7.5 3.365 7.5 7.5c0 2.25-.997 4.36-2.734 5.79z" fill="#FFFFFF"/></svg>