<svg xmlns="http://www.w3.org/2000/svg" viewBox="0 0 34 34"><circle cx="17" cy="17" r="17" opacity=".85" fill="#FFF"/><circle cx="17" cy="17" r="13.5" fill="#F2901C"/><path d="M17 10.25c3.722 0 6.75 3.028 6.75 6.75s-3.028 6.75-6.75 6.75c-3.723 0-6.75-3.028-6.75-6.75 0-3.723 3.027-6.75 6.75-6.75M17 9c-4.418 0-8 3.582-8 8s3.582 8 8 8 8-3.582 8-8-3.582-8-8-8z" fill="#FFF"/><path d="M23.18 16.58c.013.472-.24.982-.795.982s-.927-.396-.927-1.02c0-1.202-.05-1.493-.05-1.493s1.743.497 1.772 1.53zM11.444 17.204c-.013.472.24.982.795.982.554 0 .926-.396.926-1.02 0-1.202.05-1.493.05-1.493s-1.742.498-1.772 1.53zM21.37 14.502c0 .39-1.183 0-1.872 0s-1.25.44-1.25 0 .56-1.25 1.25-1.25 1.873.86 1.873 1.25zM12.63 14.502c0 .39 1.183 0 1.872 0s1.25.44 1.25 0-.56-1.25-1.25-1.25-1.873.86-1.873 1.25zM13.306 20.73c0-1.732 1.243-3.674 3.694-3.674 2.45 0 3.694 1.94 3.694 3.674 0 0-1.188-.622-3.694-.622-2.506 0-3.694.622-3.694.622z" fill="#FFF"/></svg>