<svg xmlns="http://www.w3.org/2000/svg" viewBox="0 0 660.708 245.154"><g fill="#FFF"><path d="M164.56 188.7c-13.1.14-19.98 2.345-26.62 4.49-6.726 2.167-13.696 4.4-27.382 4.4-13.688 0-20.656-2.233-27.38-4.4-6.855-2.22-13.945-4.5-27.902-4.5-13.945 0-21.033 2.28-27.892 4.5-6.722 2.167-13.69 4.4-27.384 4.4v1.685c13.96 0 21.04-2.29 27.9-4.496 6.73-2.183 13.692-4.423 27.375-4.423 13.695 0 20.65 2.24 27.39 4.422 6.857 2.204 13.938 4.495 27.892 4.495 13.952 0 21.04-2.29 27.894-4.496 6.526-2.106 13.274-4.272 26.11-4.403V188.7zM55.275 174.748c13.695 0 20.65 2.246 27.39 4.416 6.857 2.217 13.938 4.506 27.892 4.506 13.952 0 21.04-2.29 27.894-4.506 6.526-2.096 13.274-4.268 26.11-4.402v-1.682c-13.1.14-19.98 2.355-26.622 4.5-6.725 2.162-13.695 4.418-27.38 4.418-13.69 0-20.657-2.256-27.382-4.418-6.854-2.215-13.944-4.516-27.9-4.516-13.946 0-21.034 2.3-27.893 4.516-6.722 2.162-13.69 4.418-27.384 4.418v1.672c13.958 0 21.04-2.29 27.898-4.506 6.733-2.17 13.694-4.416 27.377-4.416zM55.275 159.137c13.695 0 20.65 2.256 27.39 4.418 6.857 2.21 13.938 4.506 27.892 4.506 13.952 0 21.04-2.294 27.894-4.505 6.526-2.098 13.274-4.268 26.11-4.396v-1.68c-13.1.134-19.98 2.34-26.622 4.485-6.725 2.172-13.695 4.422-27.38 4.422-13.69 0-20.657-2.25-27.382-4.422-6.854-2.215-13.944-4.5-27.9-4.5-13.946 0-21.034 2.285-27.893 4.5-6.722 2.172-13.69 4.422-27.384 4.422v1.674c13.958 0 21.04-2.294 27.898-4.505 6.733-2.162 13.694-4.418 27.377-4.418zM607.925 188.69c-13.947 0-21.037 2.28-27.897 4.5-6.728 2.167-13.693 4.4-27.38 4.4-13.694 0-20.653-2.233-27.383-4.4-6.834-2.21-13.9-4.49-27.75-4.5h-.15c-7.844 0-13.517.722-18.21 1.747v1.748c4.682-1.06 10.344-1.818 18.285-1.828 13.643.01 20.592 2.25 27.31 4.422 6.862 2.204 13.94 4.495 27.897 4.495 13.947 0 21.035-2.29 27.895-4.496 6.727-2.183 13.692-4.423 27.38-4.423 13.69 0 20.652 2.24 27.39 4.422 3.13 1 6.314 2.026 10.18 2.843v-1.71c-3.647-.79-6.69-1.76-9.675-2.722-6.85-2.22-13.943-4.5-27.892-4.5zM607.925 173.064c-13.947 0-21.037 2.3-27.897 4.516-6.728 2.162-13.693 4.418-27.38 4.418-13.694 0-20.653-2.256-27.383-4.418-6.834-2.215-13.9-4.496-27.75-4.516h-.15c-7.844 0-13.517.732-18.21 1.764v1.752c4.682-1.066 10.344-1.828 18.285-1.832 13.643.004 20.592 2.246 27.31 4.416 6.862 2.217 13.94 4.506 27.897 4.506 13.947 0 21.035-2.29 27.895-4.506 6.727-2.17 13.692-4.416 27.38-4.416 13.69 0 20.652 2.246 27.39 4.416 3.13 1.012 6.314 2.03 10.18 2.854v-1.71c-3.647-.8-6.69-1.767-9.675-2.728-6.85-2.215-13.943-4.516-27.892-4.516zM635.818 161.965c-6.852-2.215-13.944-4.5-27.893-4.5-13.947 0-21.037 2.285-27.897 4.5-6.728 2.172-13.693 4.422-27.38 4.422-13.694 0-20.653-2.25-27.383-4.422-6.834-2.205-13.9-4.486-27.75-4.496v-.005h-.15c-7.844 0-13.517.727-18.21 1.758v1.748c4.682-1.06 10.344-1.827 18.285-1.833 13.643.012 20.592 2.256 27.31 4.418 6.862 2.21 13.94 4.506 27.897 4.506 13.947 0 21.035-2.294 27.895-4.505 6.727-2.162 13.692-4.418 27.38-4.418 13.69 0 20.652 2.256 27.39 4.418 3.13 1.016 6.314 2.035 10.18 2.857V164.7c-3.646-.792-6.688-1.772-9.674-2.735z"/></g><path fill="#28381F" d="M462.325 213.117L198.36 245.154l-9.946-81.908L452.39 131.21"/><path fill="#F16623" d="M457.892 207.143L193.93 239.17l-9.948-81.91 263.973-32.026"/><path d="M257.49 213.71l-44.927 5.44.3-2.02 5.783-.696 5.786-37.896.914-7.14-5.993.726.294-2.016 26.17-3.168-.365 2.018-6.127.746-1.35 8.002-4.24 28.03-1.167 9.01c6.586-.864 14.517-1.886 19.927-7.394 3.204-3.326 4.295-6.8 5.173-9.705l2.283-.277c-1.74 10.45-1.93 11.626-2.46 16.34zM304.362 161.816l-5.512.678-1.285 7.46-4.5 29.276-1.24 8.327 6.116-.727-.362 2.016-25.502 3.107.374-2.037 5.65-.687 1.398-8.158 4.618-30.1.874-6.81-6.115.736.3-1.992 25.493-3.1M369.732 153.898l-4.234.514-5.635 8.13-26.48 37.192-4.07 5.814-3.433.42c1.285-30.604 1.42-33.96 1.748-46.96l-5.84.712.355-2.027 25.028-3.043-.303 2.027-5.78.703-1.863 30.248 4.028-5.607 14.04-19.86 4.91-7.35-5.845.713.368-2.02 13.317-1.62-.31 2.015zM424.582 160.486l-2.425.3c-.274-3.382-.58-6.49-3.25-8.813-3.886-3.355-8.8-2.828-15.604-2.072l-2.975 18.794c3.087-.38 6.047-.807 9.082-3.357 2.963-2.543 3.694-4.953 4.417-7.424l2.36-.293c-2.288 12.707-2.423 13.334-3.772 23.53l-2.422.296c.105-1.385.147-2.754-.022-4.098-.86-7.13-6.59-6.508-10.035-6.234l-3.39 23.775c7.6-.866 12.82-1.694 17.9-4.835 6.163-3.824 8.21-8.928 9.223-12.375l2.614-.328c-2.26 11.123-2.52 12.39-3.145 16.287l-46.544 5.636.302-2.006 5.52-.672 1.648-9.422 5.45-35.666-6.265.746.3-2.016 41.976-5.084-.942 15.33z" fill="#FFF"/><g fill="#F8FBF8"><path d="M279.274 7.04h13.158l-2.662 9.42h6.9l-.572 2.157h-6.973l-7.048 24.518c-.142.498-.286 1.15-.286 1.723 0 .936.58 1.37 1.08 1.37 1.938 0 5.536-4.462 8.34-7.907l1.87 1.22c-4.53 5.89-9.995 12.44-17.112 12.44-4.6 0-7.188-2.446-7.188-6.4 0-2.155 1.148-6.185 2.084-9.276l5.104-17.685h-6.615l.645-2.157h6.545l2.73-9.424zM300.052.428C312.06.354 313.424.354 320.182 0l-7.764 26.887c2.16-3.096 7.91-11.432 16.61-11.432 4.958 0 7.978 2.803 7.978 6.687 0 2.012-.36 3.307-4.098 14.732-.575 1.654-2.442 7.266-2.442 8.416 0 .723.356 1.508 1.364 1.508 1.726 0 3.884-2.732 7.335-7.26l1.797 1.076c-3.16 4.602-8.054 11.508-15.747 11.508-4.022 0-7.69-2.086-7.69-6.543 0-.65.07-1.366.216-2.02.574-3.304 6.038-18.044 6.038-20.34 0-1.513-1.077-1.946-2.086-1.946-1.725 0-3.162 1.295-4.387 2.516-5.032 5.178-7.474 10.79-11.358 27.395h-13.805l3.237-10.496 10.784-38.18h-6.615l.502-2.082zM373.818 39.465c-2.66 3.81-8.985 12.514-19.414 12.514-6.54 0-12.44-3.74-12.44-11.653 0-9.918 9.71-24.8 25.31-24.8 1.44 0 10.21 0 10.21 6.4 0 1.724-.792 4.667-4.528 7.26-2.232 1.51-5.177 2.944-16.18 6.18-.718 2.735-1.293 5.105-1.293 7.046 0 2.445.934 5.174 4.17 5.174 5.537 0 11.07-7.613 12.225-9.34l1.94 1.218zm-9.276-10.785c2.733-3.018 4.028-6.61 4.028-8.555 0-.576 0-2.156-1.867-2.156-3.742 0-7.12 9.06-9.28 14.952 2.448-.79 4.677-1.578 7.12-4.242z"/></g><g><path d="M32.903 112.73h-7.1l2.178-15.053h-6.958l-2.11 15.053h-7.174l2.11-15.053H5.34v-6.955h9.423l.916-6.684H6.885V77.01h9.708l1.897-13.928h7.313l-1.97 13.928h6.89l1.898-13.928h7.11L37.824 77.01h8.3v7.03h-9.21l-.99 6.683h8.652v6.955H35.08l-2.177 15.052zm-4.008-22.007l.916-6.684h-6.96l-.914 6.683h6.96z" fill="#F8FBF8"/><path d="M57.797 63.082H100.9c-1.267 6.328-1.618 8.156-2.813 15.4h-2.46c.07-2.812.07-5.695-1.407-8.156-2.883-4.78-9.21-4.924-16.173-4.994L71.93 86.71c2.532-.136 5.557-.35 8.72-2.53 3.235-2.252 4.29-4.926 5.205-7.105h2.46c-3.446 10.834-4.218 13.504-6.89 24.12h-2.46c.348-1.544.704-3.163.704-4.78 0-2.32-.775-4.148-1.9-5.273-1.758-1.896-4.363-2.107-6.402-2.25l-6.05 21.803h6.892l-.63 2.037H44.366l.565-2.037h5.837l2.39-8.09 10.548-37.41h-6.47l.562-2.113zM136.413 92.127c0 9.844-8.23 21.52-23.134 21.52-12.026 0-16.88-6.682-16.88-14.21 0-10.124 8.302-21.446 22.995-21.73 13.29-.21 17.018 8.652 17.018 14.42zM115.95 82.7c-2.955 4.224-7.033 18.146-7.033 23.98 0 .91 0 4.646 3.73 4.646 2.178 0 3.796-1.623 4.99-3.734 2.46-4.426 6.4-17.785 6.4-23.13 0-.915 0-4.854-3.94-4.5-2.247.14-3.584 1.897-4.147 2.74zM180.363 92.127c0 9.844-8.226 21.52-23.136 21.52-12.023 0-16.877-6.682-16.877-14.21 0-10.124 8.3-21.446 22.997-21.73 13.29-.21 17.016 8.652 17.016 14.42zM159.897 82.7c-2.953 4.224-7.03 18.146-7.03 23.98 0 .91 0 4.646 3.73 4.646 2.175 0 3.79-1.623 4.988-3.734 2.46-4.426 6.404-17.785 6.404-23.13 0-.915 0-4.854-3.945-4.5-2.248.14-3.585 1.897-4.148 2.74zM219.11 63.012c5.972-.068 6.61-.068 12.236-.488l-2.602 8.645-7.88 28.058c-1.477 5.064-1.616 5.697-1.825 6.537-.073.424-.212.986-.212 1.484 0 .696.42 1.26 1.05 1.26.638 0 1.196-.49 1.552-.702 1.616-1.404 3.44-3.795 5.273-6.26l1.972 1.057c-3.24 4.5-8.022 11.043-15.403 11.043-3.234 0-6.61-1.693-6.61-5.77 0-.628.072-1.126.142-1.827-1.758 2.46-5.485 7.663-13.148 7.663-5.77 0-10.27-3.162-10.27-10.053 0-10.9 10.056-25.95 21.8-25.95 5.483 0 7.03 2.956 7.592 3.942l4.785-16.527h-7.105l.563-1.97 8.09-.143zm-18.216 27.496c-1.195 2.812-4.426 11.463-4.426 15.332 0 3.23 1.895 3.654 2.67 3.654 6.257 0 12.375-17.09 12.375-24.12 0-2.325-.774-4.218-2.883-4.147-1.476.074-4.43 1.548-7.736 9.28zM234.156 94.516c-.07.77-.07 1.62-.07 2.46 0 9.774 6.68 14.7 13.78 14.7 6.544 0 10.27-4.154 10.27-8.795 0-3.37-1.76-5.057-4.43-6.675-.845-.494-5.137-2.744-6.05-3.238-5.204-2.812-10.054-5.904-10.054-13.713 0-8.508 5.413-17.506 17.93-17.506 5.065 0 9.285 1.404 16.104 3.73l-2.953 13.284-2.32-.348c.14-3.795.282-7.738-3.164-11.18-2.672-2.744-6.118-3.098-7.736-3.098-5.766 0-8.3 4.502-8.3 7.664 0 1.13.283 2.11.704 2.89 1.056 1.895 2.18 2.528 9.705 6.536 5.838 3.098 11.18 5.906 11.18 14.205 0 7.032-5.13 18.495-21.515 18.495-8.37 0-14.838-2.67-19.412-4.57 1.833-6.893 2.465-9.496 3.872-15.262l2.458.423zM318.047 102.672c-2.818 3.94-7.877 10.975-15.26 10.975-4.5 0-6.82-2.535-6.82-5.84 0-.982.212-1.69.42-2.252-3.865 6.26-8.578 8.092-13.358 8.092-5.63 0-10.2-2.89-10.2-10.203 0-10.123 9.636-25.803 21.942-25.803 6.045 0 7.59 3.935 8.084 5.206l1.195-4.084h12.45c-1.27 3.66-1.617 4.785-2.745 8.58l-4.22 14.697c-.493 1.688-1.262 4.362-1.262 5.063 0 1.05.63 1.404 1.05 1.404 1.48 0 4.432-3.87 6.827-6.96l1.897 1.125zM294.28 83.05c-2.956 3.66-8.37 17.726-8.37 23.56 0 .638 0 2.884 2.464 2.884 1.265 0 3.866-.637 6.75-5.627 2.39-4.217 5.835-12.936 5.835-18.14 0-2.6-.845-4.854-3.377-4.71-.352 0-1.686.14-3.304 2.032z" fill="#FFF"/><path d="M316.92 90.438c2.604-4.36 7.808-12.73 16.384-12.73 4.293 0 7.245 2.254 7.245 6.12 0 1.548-.424 3.235-.777 4.29-.562 2.11-3.866 12.025-4.57 14.27-.282.917-.772 2.536-.772 3.73 0 1.34.917 3.168 3.726 3.168 7.668 0 15.19-11.254 15.19-16.527 0-2.884-1.476-3.66-3.16-4.642-1.195-.63-3.727-2.04-3.727-5.133 0-2.465 1.893-5.21 5.483-5.21 3.443 0 6.115 2.82 6.115 7.745 0 3.793-1.686 12.09-8.154 19.473-7.105 8.018-15.543 8.79-18.495 8.79-5.697 0-9.99-2.526-9.99-7.17 0-2.675 1.41-6.614 2.463-9.636.776-2.252 4.01-11.533 4.01-13.076 0-.567-.492-1.054-1.055-1.054-2.46 0-6.328 6.045-8.09 8.648l-1.828-1.056zM390.474 101.264c-2.602 3.73-8.79 12.238-18.985 12.238-6.402 0-12.166-3.654-12.166-11.393 0-9.706 9.49-24.26 24.752-24.26 1.407 0 9.983 0 9.983 6.26 0 1.687-.774 4.57-4.43 7.1-2.18 1.48-5.062 2.884-15.824 6.05-.7 2.67-1.265 4.99-1.265 6.887 0 2.395.915 5.064 4.08 5.064 5.414 0 10.83-7.454 11.954-9.142l1.9 1.196zm-9.07-10.54c2.67-2.96 3.935-6.47 3.935-8.372 0-.566 0-2.105-1.828-2.105-3.654 0-6.963 8.854-9.072 14.623 2.39-.776 4.572-1.55 6.964-4.147zM407.42 112.73h-13.36l2.39-8.16 4.432-15.258 2.248-8.44h-6.33l.562-2.11c9.638 0 11.816-.064 18.99-.424l-2.11 8.654c3.022-5.065 6.68-8.932 11.74-8.932 4.007 0 6.402 2.533 6.402 6.12 0 3.937-2.602 6.89-6.12 6.89-2.883 0-4.71-1.97-4.71-4.287 0-1.688.77-2.32.77-3.166 0-.488-.28-.842-.77-.842-1.056 0-3.234 2.246-4.71 4.287-3.94 5.418-5.206 9.982-7.382 18.14l-2.04 7.528z" fill="#FFF"/><path d="M438.71 63.082h43.106c-1.265 6.328-1.615 8.156-2.81 15.4h-2.463c.072-2.812.072-5.695-1.404-8.156-2.884-4.78-9.216-4.924-16.18-4.994l-6.116 21.377c2.532-.136 5.555-.35 8.72-2.53 3.235-2.252 4.29-4.926 5.205-7.105h2.46c-3.444 10.834-4.22 13.504-6.89 24.12h-2.466c.353-1.544.707-3.163.707-4.78 0-2.32-.775-4.148-1.9-5.273-1.758-1.896-4.36-2.107-6.396-2.25l-6.047 21.803h6.89l-.634 2.037H425.28l.562-2.037h5.836l2.39-8.09 10.554-37.41h-6.468l.557-2.113zM489.48 112.73h-13.357l2.39-8.16 4.43-15.258 2.25-8.44h-6.328l.562-2.11c9.635 0 11.81-.064 18.986-.424l-2.114 8.654c3.026-5.065 6.684-8.932 11.748-8.932 4.006 0 6.396 2.533 6.396 6.12 0 3.937-2.6 6.89-6.114 6.89-2.883 0-4.71-1.97-4.71-4.287 0-1.688.772-2.32.772-3.166 0-.488-.282-.842-.773-.842-1.057 0-3.234 2.246-4.71 4.287-3.944 5.418-5.21 9.982-7.388 18.14l-2.043 7.528z" fill="#F8FBF8"/><path d="M514.936 78.697c10.197 0 13.008-.145 19.832-.568l-5.557 16.595-2.46 7.81c-.353 1.333-1.055 3.583-1.055 4.64 0 .846.28 1.55 1.195 1.55.914 0 2.18-1.132 3.022-1.974 1.41-1.472 1.97-2.18 4.08-5.202l1.758 1.057c-2.743 4.146-7.454 11.178-14.91 11.178-4.5 0-7.594-2.455-7.594-6.89 0-2.038.354-3.233 2.813-10.827l4.43-15.19h-6.19l.636-2.18zm8.79-10.904c0-3.656 2.954-6.607 6.682-6.607 3.518 0 6.61 2.95 6.61 6.607 0 3.66-3.093 6.61-6.61 6.61-1.76 0-3.516-.706-4.71-1.97-1.266-1.195-1.973-2.882-1.973-4.64zM572.176 63.012c5.978-.068 6.61-.068 12.234-.488l-2.602 8.645-7.875 28.058c-1.477 5.064-1.616 5.697-1.827 6.537-.07.424-.212.986-.212 1.484 0 .696.423 1.26 1.056 1.26s1.195-.49 1.546-.702c1.618-1.404 3.446-3.795 5.273-6.26l1.968 1.057c-3.233 4.5-8.017 11.043-15.398 11.043-3.236 0-6.612-1.693-6.612-5.77 0-.628.07-1.126.14-1.827-1.755 2.46-5.484 7.663-13.147 7.663-5.763 0-10.262-3.162-10.262-10.053 0-10.9 10.053-25.95 21.797-25.95 5.487 0 7.033 2.956 7.593 3.942l4.783-16.527h-7.102l.563-1.97 8.086-.143zm-18.214 27.496c-1.195 2.812-4.43 11.463-4.43 15.332 0 3.23 1.897 3.654 2.672 3.654 6.256 0 12.376-17.09 12.376-24.12 0-2.325-.777-4.218-2.883-4.147-1.476.074-4.43 1.548-7.735 9.28zM591.725 98.385c-1.337.494-3.167 1.266-3.167 2.808 0 1.553 1.902 1.764 4.08 1.973 2.323.21 13.853.7 16.455 1.055 2.39.28 9.635 1.122 9.635 9 0 2.534-.847 6.895-5.206 10.48-5.06 4.287-11.88 5.273-18.56 5.273-3.518 0-10.763-.354-14.84-2.883-2.32-1.48-3.374-3.307-3.374-5.203 0-1.48.702-3.307 2.53-4.64 2.11-1.62 4.852-1.974 6.748-2.183-1.757-.775-4.92-2.25-4.92-7.03 0-.847 0-4.222 3.163-7.175 1.69-1.55 3.446-2.32 6.118-3.378-.847-.91-2.74-2.668-2.74-6.398 0-3.863 2.25-7.035 4.358-8.783 2.886-2.4 7.033-3.45 11.532-3.45 7.242 0 9.77 2.53 11.53 4.22 1.688-1.823 4.077-4.503 7.737-4.503 3.515 0 4.99 2.465 4.99 5 0 2.81-1.754 5.55-4.99 5.55-2.254 0-3.516-1.472-3.516-3.095 0-.21.136-1.404.136-1.69 0-.63-.212-1.192-.983-1.192-.493 0-.704.213-2.25 1.553.632 1.684.982 2.81.982 4.426 0 1.688-.49 4.362-2.67 6.96-.984 1.266-3.867 4.78-13.077 4.78-4.43 0-6.89-1.056-8.72-1.827l-.983.352zm-5.766 21.87c0 5.974 8.225 6.26 10.338 6.26 5.13 0 13.568-1.48 13.568-6.4 0-2.605-2.53-3.098-4.147-3.307-3.517-.424-13.433-.77-14.628-.77-1.127 0-5.133.064-5.133 4.216zm15.47-36.847c-1.126 2.738-3.028 9.21-3.028 11.74 0 2.674 1.69 2.674 1.973 2.674 1.548 0 2.462-1.758 3.024-3.166 1.403-3.236 3.303-9.49 3.303-12.234 0-2.744-1.9-2.53-2.108-2.53-1.41.14-2.322 1.473-3.166 3.516zM657.123 101.264c-2.604 3.73-8.79 12.238-18.99 12.238-6.397 0-12.16-3.654-12.16-11.393 0-9.706 9.49-24.26 24.747-24.26 1.408 0 9.988 0 9.988 6.26 0 1.687-.777 4.57-4.43 7.1-2.178 1.48-5.063 2.884-15.824 6.05-.704 2.67-1.265 4.99-1.265 6.887 0 2.395.913 5.064 4.075 5.064 5.417 0 10.835-7.454 11.955-9.142l1.903 1.196zm-9.075-10.54c2.672-2.96 3.938-6.47 3.938-8.372 0-.566 0-2.105-1.83-2.105-3.657 0-6.958 8.854-9.07 14.623 2.39-.776 4.574-1.55 6.962-4.147z" fill="#F8FBF8"/></g></svg>