<svg xmlns="http://www.w3.org/2000/svg" viewBox="0 0 20 20"><g><path d="M16 0H4C1.794 0 0 1.794 0 4v12c0 2.206 1.794 4 4 4h12c2.205 0 4-1.794 4-4V4c0-2.206-1.795-4-4-4zm2.4 15.91c0 1.373-1.118 2.49-2.49 2.49H4.09c-1.372 0-2.49-1.117-2.49-2.49V6.4c0-.22.18-.4.4-.4h16c.22 0 .4.18.4.4v9.51zm0-11.71c0 .55-.448 1-1 1h-1.2c-.552 0-1-.45-1-1V3c0-.55.448-1 1-1h1.2c.552 0 1 .45 1 1v1.2z"/><path d="M10 4.8c-2.867 0-5.2 2.333-5.2 5.2s2.333 5.2 5.2 5.2 5.2-2.333 5.2-5.2-2.333-5.2-5.2-5.2zm0 8.8c-1.985 0-3.6-1.615-3.6-3.6S8.015 6.4 10 6.4s3.6 1.615 3.6 3.6-1.615 3.6-3.6 3.6z"/></g></svg>