<svg xmlns="http://www.w3.org/2000/svg" viewBox="0 0 11.438 17"><g fill="none" stroke="#69AF2F" stroke-linecap="round" stroke-linejoin="round" stroke-miterlimit="10"><path d="M8.082 12.964c1.695-.862 2.856-2.623 2.856-4.654 0-.024-.003-.047-.003-.07h.002s.024-.358-.102-.967l-.005-.025c-.29-1.38-1.343-4.016-5.11-6.746V.5l-.002.002C.245 4.47.502 8.24.502 8.24h.003c0 .024-.003.046-.003.07 0 2.882 2.336 5.218 5.218 5.218"/><path d="M5.72 3.022v11.242s.187 2.685-1.81 2.17M5.72 10.983L7.925 9.21M5.64 6.897L3.435 5.123M5.64 9.04L3.435 7.267"/></g></svg>