<svg xmlns="http://www.w3.org/2000/svg" viewBox="0 0 20 20"><path d="M10 0C4.477 0 0 4.477 0 10s4.477 10 10 10 10-4.477 10-10S15.523 0 10 0zm5.064 9.806c.003 1.944-1.06 3.676-2.77 4.545-.247.127-.546.03-.67-.217-.126-.246-.028-.547.218-.672 1.373-.697 2.226-2.087 2.226-3.626 0-.033.003-.066.01-.1h-.012c0-.003.013-.26-.08-.706C13.76 7.94 12.94 5.848 10 3.623 6.075 6.596 5.935 9.365 5.933 9.707c.003.02.005.043.005.065-.003 2.127 1.56 3.826 3.563 4.076v-3.08L7.69 9.31c-.215-.173-.25-.487-.076-.703.174-.215.488-.248.704-.076l1.186.956v-.593l-1.815-1.46c-.215-.172-.25-.486-.076-.702.175-.213.49-.247.705-.074L9.5 7.61V5.206c0-.276.224-.5.5-.5s.5.224.5.5v5.922l1.118-.9c.216-.174.53-.14.703.076.175.216.14.53-.074.703L10.5 12.41v2.63c.01.117.08 1.468-.707 2.123-.2.166-.512.334-.962.334-.16 0-.34-.02-.536-.072-.268-.07-.43-.342-.36-.61.07-.267.342-.425.61-.358.41.107.56-.02.61-.06.314-.263.37-1.003.348-1.32v-.23c-2.555-.254-4.565-2.392-4.565-5.014h.004l-.003-.027c-.01-.15-.186-3.612 4.755-7.202.057-.045.122-.077.192-.094.14-.036.293-.005.412.08 3.45 2.504 4.404 4.963 4.667 6.207.126.61.107.967.104 1.006z" fill="#FFFFFF"/></svg>