<svg class="loading-icon" xmlns="http://www.w3.org/2000/svg" viewBox="0 0 31.444 31.431"><path d="M27.847 25.755c.65-.046 1.176-.096 1.703-.117.87-.034 1.447.412 1.517 1.15.07.754-.388 1.35-1.244 1.435-1.72.17-3.446.295-5.172.395-.724.042-1.272-.47-1.285-1.2-.03-1.748-.033-3.497-.002-5.245.014-.77.585-1.297 1.276-1.303.66-.006 1.216.496 1.283 1.233.048.52.01 1.05.01 1.575l.184.072c.428-.694.93-1.354 1.27-2.09 2.42-5.228 1.87-10.145-1.828-14.57-2.19-2.618-5.1-4.096-8.52-4.376C11.725 2.28 7.476 4.29 4.65 8.79c-2.803 4.464-2.78 9.157-.12 13.706 2.047 3.497 5.218 5.495 9.204 6.192.394.07.797.08 1.192.143.784.124 1.287.73 1.202 1.427-.087.717-.698 1.23-1.465 1.17-3.72-.303-6.98-1.683-9.707-4.244C2.26 24.65.636 21.52.153 17.86-.42 13.51.623 9.54 3.33 6.066 5.944 2.71 9.4.718 13.61.156c4.372-.586 8.35.49 11.833 3.218 3.173 2.485 5.117 5.752 5.77 9.717.71 4.307-.222 8.278-2.77 11.847-.177.248-.358.492-.596.818z" fill="#FFF"/></svg>