<svg xmlns="http://www.w3.org/2000/svg" viewBox="0 0 34 34"><circle cx="17" cy="17" r="17" opacity=".85" fill="#FFF"/><circle cx="17" cy="17" r="13.5" fill="#F2901C"/><path d="M16.998 10.25c3.722 0 6.75 3.028 6.75 6.75S20.72 23.75 17 23.75c-3.723 0-6.75-3.028-6.75-6.75 0-3.723 3.027-6.75 6.75-6.75m0-1.25c-4.418 0-8 3.582-8 8s3.582 8 8 8 8-3.582 8-8-3.582-8-8-8z" fill="#FFF"/><path d="M16.998 20.39c-1.69 0-3.25-.547-4.524-1.464 1 1.423 2.652 2.355 4.524 2.355 1.872 0 3.524-.93 4.524-2.354-1.275.917-2.834 1.463-4.524 1.463zM20.85 14.52c-.57.005-1.04.662-1.04.662s-.475-.652-1.043-.65c-.646.005-1.095.435-1.09 1.104.005 1.12 1.372 1.672 2.147 2.578h.01c.765-.914 2.126-1.482 2.12-2.604-.004-.67-.46-1.092-1.104-1.09zM15.23 14.52c-.568.005-1.038.662-1.038.662s-.476-.652-1.044-.65c-.646.005-1.095.435-1.09 1.104.005 1.12 1.372 1.672 2.147 2.578h.01c.764-.914 2.126-1.482 2.12-2.604-.004-.67-.46-1.092-1.104-1.09z" fill="#FFF"/></svg>