<svg xmlns="http://www.w3.org/2000/svg" viewBox="0 0 138.686 70.005"><g fill="#FFF"><path d="M132.694 39.68c-.716-.154-1.312-.346-1.898-.535-1.346-.435-2.737-.884-5.476-.884-2.738 0-4.13.45-5.475.885-1.32.426-2.688.867-5.374.867-2.687 0-4.053-.44-5.374-.867-1.34-.433-2.73-.88-5.447-.884h-.03c-2.737 0-4.13.45-5.475.885-1.318.425-2.684.865-5.36.867-2.68-.002-4.044-.442-5.363-.867-1.345-.435-2.736-.884-5.476-.884-2.74 0-4.13.45-5.475.885-1.322.426-2.687.867-5.374.867-2.686 0-4.053-.44-5.376-.867-1.343-.435-2.737-.884-5.475-.884-2.738 0-4.13.45-5.475.885-1.32.426-2.687.867-5.375.867-2.686 0-4.054-.44-5.374-.867-1.344-.435-2.737-.884-5.476-.884-2.738 0-4.13.45-5.475.885-1.32.426-2.69.867-5.375.867-2.688 0-4.055-.44-5.375-.867-1.346-.435-2.737-.884-5.476-.884-2.737 0-4.13.45-5.475.885-1.32.426-2.688.867-5.375.867v.328c2.74 0 4.13-.45 5.475-.883 1.322-.427 2.688-.867 5.374-.867 2.688 0 4.053.44 5.376.867 1.345.434 2.736.883 5.475.883 2.738 0 4.13-.45 5.474-.883 1.322-.427 2.687-.867 5.374-.867 2.688 0 4.054.44 5.377.867 1.347.434 2.737.883 5.475.883 2.738 0 4.13-.45 5.476-.883 1.323-.427 2.69-.867 5.375-.867 2.686 0 4.054.44 5.375.867 1.346.434 2.737.883 5.476.883 2.738 0 4.13-.45 5.475-.883 1.322-.427 2.69-.867 5.376-.867 2.687 0 4.054.44 5.376.867 1.34.433 2.728.88 5.45.883h.026c2.74 0 4.13-.45 5.476-.883 1.32-.426 2.684-.865 5.36-.867 2.68.002 4.042.44 5.362.867 1.347.434 2.736.883 5.476.883 2.738 0 4.13-.45 5.475-.883 1.322-.427 2.688-.867 5.375-.867s4.054.44 5.376.867c.615.198 1.24.4 1.998.56v-.336zM16.842 32.462c2.688 0 4.053.44 5.376.867 1.345.433 2.736.883 5.475.883 2.738 0 4.13-.45 5.474-.884 1.323-.427 2.688-.868 5.375-.868 2.688 0 4.054.44 5.377.867 1.345.433 2.735.883 5.473.883s4.13-.45 5.476-.884c1.32-.427 2.687-.868 5.373-.868 2.686 0 4.054.44 5.375.867 1.346.433 2.737.883 5.476.883 2.738 0 4.13-.45 5.475-.884 1.32-.427 2.688-.868 5.374-.868 2.687 0 4.054.44 5.376.867 1.34.43 2.728.88 5.45.883h.026c2.74 0 4.13-.45 5.476-.884 1.32-.426 2.684-.867 5.36-.868 2.68 0 4.042.442 5.362.867 1.347.433 2.736.883 5.476.883 2.738 0 4.13-.45 5.475-.884 1.322-.427 2.688-.868 5.375-.868s4.054.44 5.376.867c.615.197 1.24.398 1.998.56v-.337c-.716-.155-1.312-.347-1.898-.536-1.346-.435-2.737-.884-5.476-.884-2.738 0-4.13.45-5.475.884-1.32.426-2.688.868-5.374.868-2.687 0-4.053-.442-5.374-.868-1.34-.434-2.73-.88-5.447-.884h-.03c-2.737 0-4.13.448-5.475.883-1.318.425-2.684.866-5.36.868-2.68 0-4.044-.443-5.363-.868-1.345-.435-2.736-.884-5.476-.884-2.74 0-4.13.45-5.475.884-1.322.426-2.687.868-5.374.868-2.686 0-4.053-.442-5.376-.868-1.343-.435-2.737-.884-5.475-.884-2.738 0-4.13.45-5.475.884-1.32.426-2.687.868-5.375.868-2.686 0-4.054-.442-5.374-.868-1.344-.435-2.737-.884-5.476-.884-2.738 0-4.13.45-5.475.884-1.32.426-2.69.868-5.375.868-2.688 0-4.055-.442-5.375-.868-1.346-.435-2.737-.884-5.476-.884-2.737 0-4.13.45-5.475.884-1.32.426-2.688.868-5.375.868v.33c2.74 0 4.13-.45 5.475-.885 1.32-.427 2.685-.868 5.372-.868zM16.842 35.526c2.688 0 4.053.44 5.376.867 1.345.434 2.736.883 5.475.883 2.738 0 4.13-.45 5.474-.883 1.323-.426 2.688-.867 5.375-.867 2.688 0 4.054.44 5.377.867 1.345.434 2.735.883 5.473.883s4.13-.45 5.476-.883c1.32-.426 2.687-.867 5.373-.867 2.686 0 4.054.44 5.375.867 1.346.434 2.737.883 5.476.883 2.738 0 4.13-.45 5.475-.883 1.32-.426 2.688-.867 5.374-.867 2.687 0 4.054.44 5.376.867 1.34.432 2.728.88 5.45.882h.026c2.74 0 4.13-.448 5.476-.882 1.32-.426 2.684-.866 5.36-.867 2.68 0 4.042.44 5.362.867 1.347.434 2.736.883 5.476.883 2.738 0 4.13-.45 5.475-.883 1.322-.426 2.688-.867 5.375-.867s4.054.44 5.376.867c.615.198 1.24.4 1.998.56v-.336c-.716-.155-1.312-.347-1.898-.536-1.346-.434-2.737-.884-5.476-.884-2.738 0-4.13.45-5.475.885-1.32.427-2.688.868-5.374.868-2.687 0-4.053-.44-5.374-.867-1.34-.433-2.73-.88-5.447-.883h-.03c-2.737 0-4.13.45-5.475.885-1.318.425-2.684.865-5.36.867-2.68-.003-4.044-.443-5.363-.868-1.345-.435-2.736-.885-5.476-.885-2.74 0-4.13.45-5.475.885-1.322.426-2.687.867-5.374.867-2.686 0-4.053-.442-5.376-.868-1.343-.435-2.737-.885-5.475-.885-2.738 0-4.13.45-5.475.885-1.32.426-2.687.867-5.375.867-2.686 0-4.054-.442-5.374-.868-1.344-.435-2.737-.885-5.476-.885-2.738 0-4.13.45-5.475.885-1.32.426-2.69.867-5.375.867-2.688 0-4.055-.442-5.375-.868-1.346-.435-2.737-.885-5.476-.885-2.737 0-4.13.45-5.475.885-1.32.426-2.688.867-5.375.867v.328c2.74 0 4.13-.45 5.475-.883 1.32-.428 2.685-.87 5.372-.87z"/></g><path fill="#FFF" d="M138.686 46.022H0V4.912h32.27v1.07H1.07v38.97h136.546V5.983h-31.55V4.91h32.62"/><g fill="#FFF"><path d="M22.497 22.104c-.72 2.31-.828 2.745-1.307 4.597-1.438.328-2.985.676-5.033.676-3.377 0-4.88-1.154-5.708-2.135-.872-1.067-1.243-2.46-1.243-3.833 0-2.462 1.024-4.793 2.593-6.688 2.68-3.312 6.078-3.487 7.494-3.487 2.702 0 4.51.806 5.556 1.264-.392 1.285-.545 1.917-1.11 4.64l-.785-.087c.044-.48.11-1.002.11-1.59 0-.784-.088-1.547-.546-2.244-.742-1.09-1.875-1.22-2.463-1.22-1.72 0-2.92.96-3.834 2.375-1.11 1.722-2.702 6.123-2.68 9 0 .565.065 1.088.24 1.546.48 1.155 1.59 1.72 2.92 1.72 3.224 0 4.313-2.875 4.945-4.596l.85.064zM36.703 20.6c0 3.05-2.55 6.668-7.168 6.668-3.725 0-5.23-2.07-5.23-4.4 0-3.14 2.572-6.646 7.125-6.733 4.118-.066 5.273 2.68 5.273 4.466zm-6.34-2.92c-.915 1.308-2.18 5.622-2.18 7.43 0 .283 0 1.438 1.155 1.438.675 0 1.177-.5 1.547-1.154.763-1.373 1.982-5.512 1.982-7.168 0-.283 0-1.503-1.22-1.394-.696.043-1.11.588-1.284.85zM43.763 19.51c.61-.87 2.353-3.332 4.967-3.332 1.307 0 2.396.654 2.396 2.026 0 .458-.11.915-.24 1.35-.26.894-1.743 5.12-1.743 5.665 0 .37.24.456.414.456.632 0 1.677-1.438 2.2-2.2l.545.327c-1.002 1.438-2.397 3.486-4.77 3.486-.98 0-2.31-.524-2.31-2.005 0-.218.043-.458.087-.697.195-.98 1.807-5.403 1.807-6.078 0-.37-.24-.61-.632-.61-.5 0-.958.392-1.242.675-1.852 1.786-2.462 4.074-3.573 8.41h-4.118l2.266-7.8.566-2.092H38.38l.196-.632c3.333-.02 3.616-.02 5.84-.108l-.653 3.16zM56.378 13.607h3.987l-.806 2.854h2.09l-.173.654h-2.113l-2.135 7.43c-.044.15-.088.348-.088.522 0 .283.174.414.327.414.587 0 1.676-1.35 2.526-2.396l.566.37c-1.373 1.787-3.028 3.77-5.185 3.77-1.394 0-2.18-.742-2.18-1.94 0-.653.35-1.874.633-2.81l1.547-5.36h-2.004l.196-.653h1.982l.826-2.853zM70.496 23.433c-.806 1.155-2.723 3.79-5.882 3.79-1.983 0-3.77-1.132-3.77-3.528 0-3.007 2.942-7.517 7.67-7.517.436 0 3.094 0 3.094 1.94 0 .522-.24 1.415-1.372 2.2-.675.456-1.57.892-4.902 1.873-.218.83-.392 1.548-.392 2.136 0 .74.283 1.57 1.264 1.57 1.677 0 3.355-2.31 3.704-2.833l.586.37zm-2.81-3.268c.827-.915 1.22-2.004 1.22-2.593 0-.174 0-.653-.567-.653-1.134 0-2.158 2.744-2.81 4.53.74-.24 1.414-.48 2.155-1.285zM77.817 19.51c.61-.87 2.353-3.332 4.967-3.332 1.307 0 2.396.654 2.396 2.026 0 .458-.11.915-.24 1.35-.26.894-1.743 5.12-1.743 5.665 0 .37.24.456.414.456.633 0 1.678-1.438 2.2-2.2l.546.327c-1.002 1.438-2.397 3.486-4.77 3.486-.98 0-2.31-.524-2.31-2.005 0-.218.044-.458.087-.697.196-.98 1.808-5.403 1.808-6.078 0-.37-.24-.61-.63-.61-.502 0-.96.392-1.243.675-1.852 1.786-2.462 4.074-3.573 8.41h-4.118l2.266-7.8.566-2.092h-2.004l.196-.632c3.333-.02 3.617-.02 5.84-.108l-.653 3.16zM97.752 11.58c1.852-.02 2.048-.02 3.79-.152l-.805 2.68-2.44 8.693c-.458 1.57-.5 1.766-.566 2.027-.02.13-.064.305-.064.458 0 .218.13.392.326.392s.37-.153.48-.218c.5-.437 1.067-1.178 1.633-1.94l.61.327c-1.002 1.394-2.484 3.42-4.77 3.42-1.003 0-2.05-.523-2.05-1.787 0-.196.022-.348.045-.566-.545.762-1.7 2.375-4.074 2.375-1.787 0-3.18-.98-3.18-3.117 0-3.377 3.115-8.04 6.753-8.04 1.698 0 2.177.916 2.352 1.22l1.48-5.118h-2.2l.175-.61 2.505-.044zM92.11 20.1c-.37.87-1.373 3.55-1.373 4.748 0 1.002.588 1.133.828 1.133 1.94 0 3.835-5.293 3.835-7.472 0-.72-.24-1.307-.893-1.285-.458.023-1.374.48-2.398 2.876z"/><path d="M110.454 23.433c-.806 1.155-2.724 3.79-5.882 3.79-1.983 0-3.77-1.132-3.77-3.528 0-3.007 2.942-7.517 7.67-7.517.435 0 3.093 0 3.093 1.94 0 .522-.24 1.415-1.372 2.2-.675.456-1.57.892-4.902 1.873-.217.83-.39 1.548-.39 2.136 0 .74.282 1.57 1.263 1.57 1.677 0 3.355-2.31 3.703-2.833l.588.37zm-2.81-3.268c.828-.915 1.22-2.004 1.22-2.593 0-.174 0-.653-.566-.653-1.133 0-2.157 2.744-2.81 4.53.74-.24 1.415-.48 2.156-1.285zM115.705 26.984h-4.14l.74-2.527 1.373-4.728.697-2.615h-1.96l.173-.653c2.985 0 3.66-.022 5.882-.13l-.654 2.68c.937-1.57 2.07-2.768 3.64-2.768 1.24 0 1.98.784 1.98 1.895 0 1.22-.805 2.134-1.894 2.134-.893 0-1.46-.61-1.46-1.33 0-.522.24-.718.24-.98 0-.152-.087-.26-.24-.26-.327 0-1.002.697-1.46 1.33-1.22 1.677-1.612 3.093-2.287 5.62l-.63 2.33zM132.634 18.466c0 .74-.48 1.503-1.438 1.503-.72 0-1.133-.415-1.285-.763-.13-.262-.13-.697-.13-1.22 0-.697-.327-1.198-1.154-1.198-.763 0-1.11.478-1.11.98 0 .61.39.98 1.197 1.677 2.397 2.07 3.137 2.723 3.137 4.313 0 .654-.174 1.547-.937 2.266-.87.828-2.178 1.198-4.052 1.198-.87 0-2.047-.11-2.897-.48-1.11-.5-1.612-1.437-1.612-2.22 0-1.09.742-1.744 1.613-1.744.632 0 1.48.37 1.48 1.416 0 .11-.02.24-.02.348-.023.13-.154.72-.154.85 0 .937.914 1.154 1.415 1.154.915 0 1.547-.566 1.547-1.242 0-.588-.283-.85-1.982-2.375-1.394-1.24-2.135-2.047-2.135-3.42 0-1.22.653-3.376 4.422-3.44 2.463-.045 4.097.827 4.097 2.396z"/></g><path fill="#FFF" d="M68.625 57.547h1.435v8.983h-1.435z"/><path d="M69.343 65.34c1.23-1.232 3.663-1.818 5.35-1.867-2.265 1.686-4.242 3.88-5.35 6.53-1.062-2.65-3.158-4.747-5.35-6.53 1.806.146 4 .587 5.35 1.866z" fill="#FFF"/></svg>