<svg class="rewatch-icon" xmlns="http://www.w3.org/2000/svg" viewBox="0 0 61.5 61.5"><circle cx="30.75" cy="30.75" r="30" fill="none" stroke="#69AF2F" stroke-width="1.5" stroke-linecap="round" stroke-linejoin="round" stroke-miterlimit="10"/><path d="M43.012 40.79c.65-.047 1.176-.097 1.703-.118.87-.034 1.447.412 1.517 1.15.07.754-.388 1.35-1.244 1.435-1.72.17-3.446.295-5.172.395-.725.042-1.273-.47-1.286-1.2-.03-1.748-.033-3.497-.002-5.245.014-.77.585-1.297 1.276-1.303.66-.006 1.217.496 1.284 1.233.048.52.01 1.05.01 1.575l.184.072c.428-.694.93-1.354 1.27-2.09 2.42-5.228 1.87-10.145-1.828-14.57-2.188-2.618-5.098-4.096-8.52-4.376-5.314-.435-9.563 1.575-12.39 6.076-2.803 4.463-2.78 9.156-.12 13.705 2.047 3.495 5.218 5.493 9.204 6.19.394.07.797.08 1.192.143.784.123 1.287.73 1.202 1.426-.087.716-.698 1.23-1.465 1.17-3.72-.304-6.98-1.684-9.707-4.245-2.697-2.534-4.32-5.663-4.803-9.323-.573-4.35.47-8.32 3.177-11.794 2.615-3.357 6.073-5.35 10.282-5.912 4.37-.585 8.35.492 11.832 3.22 3.173 2.484 5.117 5.75 5.77 9.716.71 4.306-.222 8.277-2.77 11.846-.177.25-.358.494-.596.82z" fill="#FFF"/></svg>