<svg xmlns="http://www.w3.org/2000/svg" viewBox="0 0 111.161 14"><path d="M111.074 13.44h-.024c-4.58 0-6.914-.752-9.17-1.477-2.29-.743-4.67-1.51-9.34-1.51s-7.045.767-9.338 1.51c-2.253.725-4.583 1.477-9.17 1.477-4.58 0-6.914-.752-9.166-1.477-2.296-.743-4.67-1.51-9.342-1.51-4.67 0-7.043.767-9.34 1.51-2.25.725-4.585 1.477-9.166 1.477-4.584 0-6.917-.752-9.17-1.477-2.294-.743-4.668-1.51-9.34-1.51-4.668 0-7.043.767-9.34 1.51C6.917 12.688 4.584 13.44 0 13.44V14c4.672 0 7.044-.767 9.34-1.506 2.254-.728 4.584-1.48 9.167-1.48 4.584 0 6.913.752 9.17 1.48 2.294.74 4.667 1.506 9.34 1.506 4.67 0 7.043-.767 9.338-1.506 2.256-.728 4.585-1.48 9.168-1.48 4.585 0 6.915.752 9.17 1.48 2.297.74 4.668 1.506 9.34 1.506 4.67 0 7.044-.767 9.34-1.506 2.255-.728 4.585-1.48 9.167-1.48 4.58 0 6.915.752 9.17 1.48 2.295.74 4.667 1.506 9.34 1.506h.052c-.016-.186-.028-.373-.028-.56zM111.05 2.988c-4.58 0-6.914-.753-9.17-1.48C99.588.766 97.21 0 92.54 0s-7.045.766-9.338 1.508c-2.253.727-4.583 1.48-9.17 1.48-4.58 0-6.914-.753-9.166-1.48C62.57.766 60.194 0 55.523 0c-4.67 0-7.043.766-9.34 1.508-2.25.727-4.585 1.48-9.166 1.48-4.584 0-6.916-.753-9.17-1.48C25.553.766 23.18 0 18.508 0c-4.67 0-7.044.766-9.34 1.508-2.25.727-4.584 1.48-9.167 1.48v.56c4.672 0 7.044-.768 9.34-1.507 2.254-.727 4.584-1.478 9.167-1.478 4.584 0 6.913.75 9.17 1.48 2.294.738 4.667 1.507 9.34 1.507 4.67 0 7.043-.77 9.338-1.51C48.61 1.314 50.94.563 55.523.563c4.585 0 6.915.75 9.17 1.48 2.296.738 4.668 1.507 9.34 1.507 4.67 0 7.044-.77 9.34-1.51C85.628 1.314 87.958.563 92.54.563c4.58 0 6.915.75 9.17 1.48 2.295.738 4.667 1.507 9.34 1.507M111.143 8.214h-.093c-4.58 0-6.914-.753-9.17-1.48-2.29-.74-4.67-1.51-9.34-1.51s-7.045.77-9.338 1.51c-2.253.727-4.583 1.48-9.17 1.48-4.58 0-6.914-.753-9.166-1.48-2.296-.74-4.67-1.51-9.342-1.51-4.67 0-7.043.77-9.34 1.51-2.25.727-4.585 1.48-9.166 1.48-4.584 0-6.917-.753-9.17-1.48-2.294-.74-4.668-1.51-9.34-1.51-4.668 0-7.043.77-9.34 1.51-2.252.727-4.585 1.48-9.168 1.48v.56c4.672 0 7.044-.765 9.34-1.506 2.254-.727 4.584-1.48 9.167-1.48 4.584 0 6.913.753 9.17 1.48 2.294.74 4.667 1.506 9.34 1.506 4.67 0 7.043-.765 9.338-1.506 2.256-.727 4.585-1.48 9.168-1.48 4.585 0 6.915.753 9.17 1.48 2.296.74 4.668 1.506 9.34 1.506 4.67 0 7.044-.765 9.34-1.506 2.255-.727 4.585-1.48 9.167-1.48 4.58 0 6.915.753 9.17 1.48 2.295.74 4.667 1.506 9.34 1.506h.092c.002-.076.012-.15.018-.224-.01-.112-.013-.224-.017-.336z" fill="#FFF"/></svg>