<svg xmlns="http://www.w3.org/2000/svg" viewBox="0 0 38.714 14.256"><g fill="#FFF"><path d="M18.575.723c4.56 0 6.876.752 9.12 1.47 2.285.737 4.643 1.502 9.29 1.502.553 0 1.072-.012 1.563-.03v-.56c-.49.02-1.01.03-1.563.03-4.56 0-6.878-.748-9.12-1.47-2.28-.738-4.642-1.5-9.29-1.5-4.644 0-7.004.762-9.29 1.5C7.048 2.387 4.728 3.136.17 3.136v.558c4.647 0 7.006-.765 9.29-1.5 2.242-.72 4.56-1.472 9.117-1.472z"/><path d="M36.984 3.86c-4.66 0-7.03-.764-9.322-1.502l-.055-.018C25.383 1.626 23.084.89 18.574.89s-6.81.737-9.036 1.452l-.1-.142.052.16c-2.292.738-4.66 1.5-9.322 1.5H0v-.89h.168c4.535 0 6.84-.743 9.067-1.464C11.53.766 13.9 0 18.575 0c4.68 0 7.05.766 9.343 1.506 2.228.72 4.534 1.465 9.067 1.465.53 0 1.055-.01 1.556-.03l.175-.008v.89l-.16.008c-.51.02-1.038.03-1.57.03zM18.574.558c4.562 0 6.887.745 9.136 1.467l.037.012c2.285.737 4.628 1.492 9.238 1.492.472 0 .94-.008 1.396-.024v-.226c-.452.017-.92.025-1.395.025-4.586 0-6.916-.753-9.17-1.48-2.268-.733-4.613-1.49-9.24-1.49-4.622 0-6.968.757-9.238 1.49-2.226.72-4.525 1.462-9.003 1.48v.225c4.5-.018 6.814-.764 9.054-1.486l.05-.017c2.25-.72 4.575-1.468 9.137-1.468zM18.575 5.922c4.56 0 6.876.748 9.12 1.47 2.285.74 4.643 1.5 9.29 1.5.553 0 1.072-.01 1.563-.03v-.558c-.49.02-1.01.032-1.563.032-4.56 0-6.878-.75-9.12-1.472-2.28-.737-4.642-1.503-9.29-1.503-4.644 0-7.004.767-9.29 1.504-2.238.72-4.558 1.472-9.117 1.472v.557c4.647 0 7.006-.762 9.29-1.5 2.242-.723 4.56-1.47 9.117-1.47z"/><path d="M36.984 9.06c-4.673 0-7.046-.768-9.34-1.51-2.238-.72-4.542-1.462-9.07-1.462-4.528 0-6.833.743-9.062 1.462-2.3.742-4.67 1.51-9.345 1.51H0v-.89h.168c4.518 0 6.82-.74 9.045-1.457l.092.146-.053-.16c2.293-.74 4.665-1.506 9.322-1.506 4.664 0 7.035.767 9.328 1.507l-.014.172.05-.16c2.228.717 4.53 1.458 9.046 1.458.53 0 1.054-.012 1.556-.032l.174-.008v.89l-.16.008c-.51.02-1.037.03-1.57.03zm-18.41-3.305c4.58 0 6.91.75 9.163 1.476 2.28.738 4.627 1.497 9.248 1.497.472 0 .94-.01 1.396-.025v-.224c-.452.017-.92.024-1.395.024-4.57 0-6.896-.748-9.147-1.47l-.038-.013c-2.268-.734-4.614-1.492-9.226-1.492-4.606 0-6.95.758-9.22 1.49l-.04.012c-2.222.715-4.52 1.454-8.98 1.472v.225c4.51-.02 6.83-.768 9.07-1.492 2.26-.73 4.59-1.48 9.17-1.48z"/><g><path d="M38.547 13.497c-.49.02-1.01.032-1.563.032-4.56 0-6.878-.745-9.12-1.467-2.28-.74-4.642-1.5-9.29-1.5-4.644 0-7.004.76-9.29 1.5-2.238.722-4.558 1.466-9.118 1.466v.56c4.647 0 7.006-.764 9.29-1.498 2.243-.726 4.56-1.473 9.118-1.473 4.56 0 6.876.746 9.12 1.472 2.285.734 4.643 1.498 9.29 1.498.553 0 1.072-.012 1.563-.032v-.56z"/><path d="M36.984 14.256c-4.66 0-7.028-.762-9.32-1.498-2.244-.727-4.544-1.472-9.09-1.472s-6.844.744-9.066 1.465c-2.313.744-4.683 1.506-9.34 1.506H0v-.894h.168c4.544 0 6.844-.74 9.067-1.457 2.288-.74 4.655-1.508 9.34-1.508 4.69 0 7.055.767 9.343 1.508 2.224.716 4.524 1.457 9.067 1.457.528 0 1.052-.01 1.556-.032l.175-.007v.893l-.16.008c-.51.02-1.038.032-1.57.032zm-18.41-3.303c4.6 0 6.925.753 9.174 1.48 2.286.736 4.63 1.49 9.237 1.49.472 0 .94-.01 1.396-.025v-.228c-.454.018-.922.025-1.395.025-4.595 0-6.92-.748-9.17-1.473-2.263-.733-4.603-1.492-9.24-1.492-4.632 0-6.973.76-9.238 1.492-2.22.715-4.516 1.455-9.003 1.473v.228c4.497-.018 6.81-.762 9.05-1.482 2.268-.734 4.592-1.487 9.19-1.487z"/></g></g></svg>