<svg xmlns="http://www.w3.org/2000/svg" viewBox="0 0 14.381 33.877"><g fill="#FFF"><path d="M3.33 33.877H2.235c-.393-.153-.638-.414-.646-.86 0-.045-.07-.105-.122-.13C.498 32.425 0 31.664 0 30.586v-5.36c0-3.237 0-6.472.002-9.708 0-1.172.736-2.1 1.862-2.374.083-.02.166-.045.25-.067h10.155c.022.012.044.03.068.036 1.266.24 2.04 1.164 2.042 2.445.002 5.01 0 10.018 0 15.027 0 .142 0 .285-.023.425-.142.883-.632 1.502-1.44 1.877-.052.024-.122.084-.123.13-.01.445-.253.706-.646.86H11.05c-.38-.134-.63-.376-.66-.797H3.988c-.028.434-.284.664-.656.797zM1.595 22.674c-.005.078-.012.137-.012.196v7.716c0 .574.33.897.915.897h9.38c.594 0 .92-.324.92-.914v-7.677c0-.07-.007-.142-.01-.22H1.593zm11.205-1.6v-.205-5.28c0-.6-.327-.923-.934-.924h-9.36c-.602 0-.923.327-.924.933V21.073H12.8z"/><path d="M3.2 25.462c0-.38-.004-.758.002-1.137.01-.497.346-.848.798-.842.445.006.78.358.785.84.006.772.007 1.543 0 2.315-.004.484-.34.824-.793.825-.456 0-.78-.33-.788-.823-.008-.393-.003-.785-.003-1.178zM3.206 18.663c0-.277-.01-.554.002-.83.018-.402.316-.706.7-.737.42-.035.766.21.85.615.03.15.026.31.027.464.003.432.01.865-.002 1.297-.013.467-.357.798-.802.794-.434-.003-.76-.33-.777-.79-.007-.176-.002-.352-.003-.528v-.284h.006z"/></g><path fill="#FFF" d="M6.787 1.952h.807V7h-.807z"/><path d="M7.19 2.62c-.69.693-2.058 1.022-3.006 1.05C5.457 2.722 6.568 1.49 7.19 0c.596 1.49 1.774 2.668 3.006 3.67C9.18 3.588 7.95 3.34 7.19 2.62z" fill="#FFF"/></svg>