<svg xmlns="http://www.w3.org/2000/svg" viewBox="0 0 34 34"><circle cx="17" cy="17" r="17" opacity=".85" fill="#FFF"/><circle cx="17" cy="17" r="13.5" fill="#F2901C"/><path d="M17 10.25c3.723 0 6.75 3.028 6.75 6.75s-3.028 6.75-6.75 6.75-6.75-3.028-6.75-6.75c0-3.723 3.028-6.75 6.75-6.75M17 9c-4.418 0-8 3.582-8 8s3.582 8 8 8 8-3.582 8-8-3.582-8-8-8z" fill="#FFF"/><path d="M16.99 20.223c-1.627 0-2.8-.192-3.587-.682.745.98 1.784 1.74 3.587 1.74 2.268 0 3.843-1.812 4.314-3.585-1.05 1.36-2.663 2.528-4.314 2.528z" fill="#FFF"/><circle cx="14.503" cy="15.751" r="1.249" fill="#FFF"/><path d="M21.322 16.24c0 .165-1.39.12-2.2.12-.81 0-1.47.005-1.47-.24 0-.426 1.04-.975 1.85-.975s1.82.714 1.82 1.094z" fill="#FFF"/></svg>